<svg width="23" height="18" viewBox="0 0 23 18" fill="none" xmlns="http://www.w3.org/2000/svg">
<path d="M22.9617 2.13092C22.1435 2.49231 21.2718 2.73185 20.3629 2.84815C21.2979 2.286 22.0115 1.40262 22.347 0.337846C21.4753 0.861231 20.5128 1.23092 19.487 1.43723C18.6593 0.549692 17.4795 0 16.1925 0C13.6955 0 11.6853 2.04092 11.6853 4.54292C11.6853 4.90292 11.7155 5.24908 11.7898 5.57862C8.04017 5.39446 4.72229 3.58477 2.49342 0.828C2.10429 1.50785 1.87604 2.286 1.87604 3.12369C1.87604 4.69662 2.68042 6.09092 3.87942 6.89815C3.15479 6.88431 2.44392 6.67246 1.84167 6.33877C1.84167 6.35262 1.84167 6.37062 1.84167 6.38862C1.84167 8.59569 3.40505 10.4289 5.45517 10.8512C5.08805 10.9523 4.68792 11.0008 4.27267 11.0008C3.98392 11.0008 3.69242 10.9842 3.41879 10.9232C4.00317 12.7218 5.66142 14.0442 7.63317 14.0871C6.09867 15.2958 4.1503 16.0242 2.04104 16.0242C1.67117 16.0242 1.31642 16.0075 0.96167 15.9618C2.95954 17.2592 5.3273 18 7.88067 18C16.1802 18 20.7177 11.0769 20.7177 5.076C20.7177 4.87523 20.7108 4.68138 20.7012 4.48892C21.5963 3.84923 22.3484 3.05031 22.9617 2.13092Z" fill="white"/>
</svg>
